<svg width="21" height="21" viewBox="0 0 21 21" fill="none" xmlns="http://www.w3.org/2000/svg">
<path d="M18.9615 5.94125H13.9615" stroke="white" stroke-width="2" stroke-miterlimit="10" stroke-linecap="round" stroke-linejoin="round"/>
<path d="M5.6281 5.94125H2.29477" stroke="white" stroke-width="2" stroke-miterlimit="10" stroke-linecap="round" stroke-linejoin="round"/>
<path d="M8.96144 8.85793C10.5723 8.85793 11.8781 7.5521 11.8781 5.94126C11.8781 4.33043 10.5723 3.0246 8.96144 3.0246C7.3506 3.0246 6.04477 4.33043 6.04477 5.94126C6.04477 7.5521 7.3506 8.85793 8.96144 8.85793Z" stroke="white" stroke-width="2" stroke-miterlimit="10" stroke-linecap="round" stroke-linejoin="round"/>
<path d="M18.9614 15.1079H15.6281" stroke="white" stroke-width="2" stroke-miterlimit="10" stroke-linecap="round" stroke-linejoin="round"/>
<path d="M7.29477 15.1079H2.29477" stroke="white" stroke-width="2" stroke-miterlimit="10" stroke-linecap="round" stroke-linejoin="round"/>
<path d="M12.2948 18.0246C13.9056 18.0246 15.2114 16.7188 15.2114 15.1079C15.2114 13.4971 13.9056 12.1913 12.2948 12.1913C10.6839 12.1913 9.37811 13.4971 9.37811 15.1079C9.37811 16.7188 10.6839 18.0246 12.2948 18.0246Z" stroke="white" stroke-width="2" stroke-miterlimit="10" stroke-linecap="round" stroke-linejoin="round"/>
</svg>
