<svg width="140" height="139" viewBox="0 0 140 139" fill="none" xmlns="http://www.w3.org/2000/svg">
<g clip-path="url(#clip0_461_1988)">
<path d="M70 0C26.8503 0 -8.16699 35.7589 -8.5 80V144H148.5V80C148.167 35.7589 113.15 0 70 0Z" fill="#2F2E41"/>
<path d="M66 9C66.2761 9 66.5 8.77614 66.5 8.5C66.5 8.22386 66.2761 8 66 8C65.7239 8 65.5 8.22386 65.5 8.5C65.5 8.77614 65.7239 9 66 9Z" fill="#F2F2F2"/>
<path d="M78 32C78.2761 32 78.5 31.7761 78.5 31.5C78.5 31.2239 78.2761 31 78 31C77.7239 31 77.5 31.2239 77.5 31.5C77.5 31.7761 77.7239 32 78 32Z" fill="#F2F2F2"/>
<path d="M31.5 58H30.5V80H31.5V58Z" fill="#3F3D56"/>
<path d="M35.4999 53.9748C35.5292 61.7068 31.0531 68 31.0531 68C31.0531 68 26.5295 61.7572 26.5001 54.0252C26.4708 46.2932 30.9469 40 30.9469 40C30.9469 40 35.4705 46.2428 35.4999 53.9748Z" fill="#3F3D56"/>
<path d="M25.5 52H24.5V80H25.5V52Z" fill="#3F3D56"/>
<path d="M30.4998 48.4667C30.5389 58.684 24.5708 67 24.5708 67C24.5708 67 18.5393 58.7506 18.5002 48.5333C18.4611 38.316 24.4292 30 24.4292 30C24.4292 30 30.4607 38.2494 30.4998 48.4667Z" fill="#3F3D56"/>
<path d="M103.5 60.9748C103.536 68.7068 98.0649 75 98.0649 75C98.0649 75 92.536 68.7572 92.5002 61.0252C92.4643 53.2932 97.9351 47 97.9351 47C97.9351 47 103.464 53.2428 103.5 60.9748Z" fill="#3F3D56"/>
<path d="M20.5 58H19.5V80H20.5V58Z" fill="#3F3D56"/>
<path d="M23.4999 53.9748C23.5259 61.7068 19.5472 68 19.5472 68C19.5472 68 15.5262 61.7572 15.5001 54.0252C15.4741 46.2932 19.4528 40 19.4528 40C19.4528 40 23.4738 46.2428 23.4999 53.9748Z" fill="#3F3D56"/>
<path d="M66.4999 53.9748C66.5292 61.7068 62.0531 68 62.0531 68C62.0531 68 57.5295 61.7572 57.5001 54.0252C57.4708 46.2932 61.9469 40 61.9469 40C61.9469 40 66.4705 46.2428 66.4999 53.9748Z" fill="#3F3D56"/>
<path d="M56.5 52H55.5V80H56.5V52Z" fill="#3F3D56"/>
<path d="M62.4998 48.4667C62.5389 58.684 56.5708 67 56.5708 67C56.5708 67 50.5393 58.7506 50.5002 48.5333C50.4611 38.316 56.4292 30 56.4292 30C56.4292 30 62.4607 38.2494 62.4998 48.4667Z" fill="#3F3D56"/>
<path d="M51.5 58H50.5V80H51.5V58Z" fill="#3F3D56"/>
<path d="M55.4999 53.9748C55.5292 61.7068 51.0531 68 51.0531 68C51.0531 68 46.5295 61.7572 46.5001 54.0252C46.4708 46.2932 50.9469 40 50.9469 40C50.9469 40 55.4705 46.2428 55.4999 53.9748Z" fill="#3F3D56"/>
<path d="M101.5 68.5177L92.5352 60C92.511 60.3828 92.4984 60.7696 92.5002 61.1605C92.5343 68.8176 97.8031 75 97.8031 75C99.3371 73.0388 100.583 70.8545 101.5 68.5177Z" fill="#6C63FF"/>
<path d="M41.5518 77.7642C41.7232 79.1449 42.3104 80 42.3104 80C42.3104 80 42.6197 78.6165 42.4482 77.2358C42.2768 75.8551 41.6896 75 41.6896 75C41.6896 75 41.3803 76.3835 41.5518 77.7642Z" fill="#3F3D56"/>
<path d="M41.8803 77.8981C42.4325 78.7265 42.5 80 42.5 80C42.5 80 41.672 79.9303 41.1197 79.1019C40.5675 78.2735 40.5 77 40.5 77C40.5 77 41.328 77.0697 41.8803 77.8981Z" fill="#3F3D56"/>
<path d="M79.6035 77.7642C79.9464 79.1449 81.1208 80 81.1208 80C81.1208 80 81.7393 78.6165 81.3965 77.2358C81.0536 75.8551 79.8792 75 79.8792 75C79.8792 75 79.2607 76.3835 79.6035 77.7642Z" fill="#6C63FF"/>
<path d="M80.8803 77.8981C81.4325 78.7265 81.5 80 81.5 80C81.5 80 80.672 79.9303 80.1197 79.1019C79.5675 78.2735 79.5 77 79.5 77C79.5 77 80.328 77.0697 80.8803 77.8981Z" fill="#6C63FF"/>
<path d="M10.6035 77.7642C10.9464 79.1449 12.1208 80 12.1208 80C12.1208 80 12.7393 78.6165 12.3965 77.2358C12.0536 75.8551 10.8792 75 10.8792 75C10.8792 75 10.2607 76.3835 10.6035 77.7642Z" fill="#3F3D56"/>
<path d="M10.8803 77.8981C11.4325 78.7265 11.5 80 11.5 80C11.5 80 10.672 79.9303 10.1197 79.1019C9.56746 78.2735 9.5 77 9.5 77C9.5 77 10.328 77.0697 10.8803 77.8981Z" fill="#3F3D56"/>
<path d="M53.5 34.9347L66.0774 58C66.3584 56.6019 66.5003 55.1678 66.5 53.7286C66.4858 49.9754 65.4075 46.5752 64.3063 44.0757L63.7244 44.2514L64.2717 43.9977C63.6232 42.5121 62.8509 41.1114 61.9669 39.8176C61.9669 39.8176 61.6459 40.2689 61.1772 41.0772C59.5247 34.5646 56.217 30 56.217 30C55.1846 31.5365 54.2748 33.1888 53.5 34.9347Z" fill="#6C63FF"/>
<path opacity="0.1" d="M130.109 79C130.212 79 130.312 78.9473 130.385 78.8536C130.459 78.7598 130.5 78.6326 130.5 78.5C130.5 78.3674 130.459 78.2402 130.385 78.1465C130.312 78.0527 130.212 78 130.109 78H126.891C126.995 78.2652 127.012 78.5723 126.939 78.8536C126.865 79.1349 126.708 79.3674 126.5 79.5C126.5 79.6326 126.541 79.7598 126.615 79.8535C126.688 79.9473 126.788 80 126.891 80H130.109C130.212 80 130.312 79.9473 130.385 79.8535C130.459 79.7598 130.5 79.6326 130.5 79.5C130.5 79.3674 130.459 79.2402 130.385 79.1464C130.312 79.0527 130.212 79 130.109 79Z" fill="#F2F2F2"/>
<path d="M122.498 78.2097C122.556 80.5222 121.19 79.9328 119.534 79.9328C117.877 79.9328 116.511 80.2275 116.5 78.2097C116.495 77.2161 117.853 77 119.509 77C121.165 77 122.473 77.2164 122.498 78.2097Z" fill="#3F3D56"/>
<path d="M125.433 79.4049C125.408 79.3884 125.38 79.3776 125.352 79.3729C125.209 79.3453 125.068 79.3085 124.929 79.2626C124.789 79.2163 124.661 79.1291 124.555 79.0085C124.515 78.9518 124.471 78.9002 124.423 78.8544C124.399 78.832 124.37 78.8186 124.339 78.8159C124.309 78.8132 124.278 78.8214 124.251 78.8394C124.246 78.8447 124.241 78.8506 124.236 78.857C124.217 78.8413 124.197 78.8256 124.178 78.8099C124.074 78.7264 123.97 78.6439 123.865 78.5624L123.861 78.559C123.864 78.5389 123.864 78.5183 123.861 78.4982C123.843 78.432 123.806 78.3759 123.756 78.34C123.892 78.3384 124.028 78.3234 124.162 78.306C124.29 78.3087 124.414 78.2496 124.507 78.1416C124.521 78.1228 124.529 78.0989 124.531 78.0737C124.531 78.0219 124.487 77.9881 124.448 77.9685C124.396 77.9424 124.342 77.9229 124.286 77.9102C124.247 77.9036 124.209 77.8938 124.171 77.881C124.138 77.8661 124.105 77.8474 124.075 77.8252C124.008 77.7804 123.941 77.7356 123.875 77.6909C123.846 77.674 123.82 77.6519 123.797 77.6253C123.763 77.5815 123.748 77.5195 123.714 77.4764C123.682 77.4366 123.553 77.3843 123.535 77.4657C123.527 77.4979 123.555 77.5335 123.559 77.5694C123.514 77.5352 123.468 77.5042 123.42 77.4766C123.423 77.4694 123.426 77.4629 123.428 77.4554C123.207 77.2389 123.031 76.9611 122.916 76.645C122.936 76.6456 122.955 76.6471 122.975 76.6469C123.009 76.6507 123.043 76.6406 123.071 76.6183C123.083 76.6052 123.092 76.5891 123.098 76.5711C123.104 76.5531 123.106 76.5336 123.105 76.5143C123.103 76.4756 123.095 76.4378 123.082 76.4022C123.054 76.2957 123.009 76.1969 122.95 76.1115C122.892 76.0437 122.826 75.9868 122.755 75.9428L122.744 75.9349C122.739 75.9169 122.734 75.8988 122.728 75.8812C122.685 75.7719 122.637 75.6661 122.583 75.5644C122.506 75.3941 122.45 75.2116 122.416 75.0222C122.403 74.9068 122.367 74.7972 122.311 74.7033C122.207 74.5632 122.028 74.5668 121.874 74.5879C121.786 74.6 121.699 74.6162 121.612 74.6327C121.611 74.63 121.611 74.6271 121.61 74.6244C121.599 74.5994 121.592 74.5719 121.59 74.5436C121.592 74.5205 121.596 74.4977 121.602 74.4756C121.607 74.4482 121.606 74.4198 121.599 74.393C121.593 74.3662 121.58 74.3418 121.564 74.3222C121.56 74.318 121.557 74.3132 121.553 74.3085C121.563 74.2808 121.572 74.2529 121.58 74.2248C121.587 74.2144 121.592 74.2023 121.596 74.1892C121.599 74.1762 121.6 74.1625 121.599 74.1489C121.615 74.0807 121.623 74.0102 121.624 73.9392C121.606 73.7826 121.601 73.6241 121.61 73.4662C121.605 73.4271 121.594 73.3898 121.576 73.3569C121.573 73.3517 121.567 73.3492 121.564 73.3446C121.59 73.3015 121.621 73.2626 121.655 73.2286C121.722 73.1653 121.794 73.1096 121.87 73.0625C121.888 73.0503 121.913 73.0416 121.931 73.0277C121.957 73.0331 121.984 73.0365 122.011 73.0376C122.111 73.0383 122.209 73.0092 122.298 72.9527C122.387 72.8962 122.462 72.8141 122.519 72.7135C122.576 72.6129 122.611 72.497 122.623 72.3758C122.634 72.2545 122.621 72.1317 122.585 72.0181C122.612 72.0099 122.638 71.995 122.661 71.9743C122.684 71.9537 122.704 71.9276 122.718 71.8977C122.748 71.8342 122.766 71.7634 122.771 71.6903C122.776 71.6623 122.776 71.6334 122.771 71.6052C122.767 71.5771 122.758 71.5503 122.745 71.5264C122.722 71.4992 122.696 71.4767 122.667 71.4597C122.627 71.4294 122.594 71.3882 122.57 71.3394C122.552 71.3047 122.54 71.2667 122.525 71.2307C122.499 71.1641 122.459 71.1074 122.408 71.0667C122.358 71.0261 122.3 71.003 122.239 71C122.182 71.0089 122.125 71.0227 122.07 71.0413C121.879 71.0821 121.671 70.9588 121.494 71.055C121.451 71.0809 121.41 71.1139 121.374 71.153C121.324 71.2033 121.276 71.2562 121.23 71.3117C121.19 71.3533 121.16 71.407 121.142 71.4674C121.118 71.5778 121.176 71.701 121.139 71.8062C121.127 71.8362 121.112 71.8648 121.095 71.8913C121.055 71.9632 121.098 72.2441 121.094 72.331C121.089 72.3736 121.098 72.4169 121.118 72.4515C121.124 72.458 121.13 72.4637 121.136 72.4682C120.839 72.5976 120.549 72.7483 120.267 72.9196C119.927 73.1199 119.646 73.4408 119.459 73.8402C119.411 73.9543 119.375 74.075 119.332 74.1919C119.274 74.3477 119.204 74.4963 119.134 74.6446C119.049 74.8254 118.963 75.0066 118.865 75.1771C118.809 75.2675 118.757 75.3616 118.709 75.4591C118.708 75.4733 118.707 75.4876 118.708 75.5018C118.71 75.5153 118.709 75.5291 118.705 75.5419C118.701 75.5493 118.695 75.5555 118.689 75.56C118.682 75.5645 118.675 75.5672 118.668 75.5679L118.665 75.5753C118.643 75.6629 118.624 75.7519 118.61 75.8419C118.581 75.9849 118.534 76.1229 118.517 76.2687C118.506 76.2869 118.5 76.3085 118.5 76.3307C118.5 76.3529 118.505 76.3748 118.514 76.3937C118.524 76.4125 118.538 76.4274 118.554 76.4367C118.571 76.4459 118.589 76.449 118.607 76.4456C118.709 76.501 118.808 76.566 118.906 76.6315C118.905 76.6403 118.902 76.6487 118.901 76.6577C118.898 76.7504 118.916 76.8424 118.954 76.9229C118.992 77.0035 119.048 77.0693 119.115 77.1128C119.25 77.1973 119.398 77.2465 119.55 77.2573C119.609 77.2659 119.668 77.2699 119.727 77.2773C119.813 77.3357 119.905 77.3809 120 77.4121C120.02 77.4195 120.042 77.4236 120.063 77.4243C120.092 77.4219 120.12 77.4117 120.146 77.3944C120.171 77.377 120.193 77.353 120.209 77.324C120.716 77.3582 121.225 77.3455 121.73 77.2861C121.87 77.2463 122.017 77.2742 122.141 77.3638C122.25 77.4726 122.272 77.6655 122.354 77.8064C122.413 77.8933 122.48 77.9725 122.552 78.0426C122.697 78.2292 122.824 78.4341 122.933 78.6538C123.043 78.8756 123.202 79.0549 123.392 79.1709C123.426 79.1044 123.475 79.0517 123.534 79.0196C123.549 79.0086 123.564 78.9957 123.579 78.9839C123.599 79.0236 123.622 79.0608 123.648 79.0947C123.668 79.1205 123.687 79.1477 123.706 79.1759C123.705 79.1759 123.705 79.1755 123.704 79.1756C123.677 79.1807 123.669 79.2212 123.665 79.2538C123.654 79.3787 123.642 79.5035 123.63 79.6283C123.626 79.653 123.628 79.6785 123.635 79.7023C123.647 79.7281 123.667 79.7478 123.69 79.7582C123.785 79.8138 123.887 79.8469 123.992 79.8556C124.045 79.86 124.098 79.8582 124.151 79.8639C124.237 79.8776 124.323 79.8985 124.407 79.9264C124.636 79.9902 124.872 80.0127 125.106 79.9932C125.155 79.9918 125.203 79.9807 125.248 79.9604C125.302 79.9289 125.35 79.8838 125.388 79.8281C125.437 79.7715 125.473 79.7006 125.493 79.6222C125.503 79.5828 125.502 79.5408 125.491 79.5019C125.481 79.4631 125.46 79.4292 125.433 79.4049Z" fill="#3F3D56"/>
<path d="M122.692 71.1905C122.711 71.2202 122.726 71.2516 122.747 71.2803C122.777 71.3206 122.818 71.3546 122.866 71.3796C122.902 71.3937 122.934 71.4123 122.962 71.4347C122.978 71.4544 122.989 71.4766 122.994 71.4998C123 71.523 122.999 71.5469 122.994 71.5701C122.988 71.6304 122.966 71.6889 122.929 71.7413C122.911 71.766 122.888 71.7875 122.859 71.8046C122.831 71.8217 122.799 71.834 122.765 71.8408C122.817 71.9409 122.835 72.0505 122.817 72.1582C122.799 72.2659 122.746 72.3677 122.664 72.4529C122.582 72.5381 122.474 72.6037 122.351 72.6426C122.227 72.6816 122.093 72.6926 121.963 72.6745C121.942 72.686 121.911 72.6932 121.889 72.7032C121.796 72.7422 121.708 72.7881 121.625 72.8404C121.583 72.8685 121.546 72.9007 121.513 72.9362C121.517 72.9401 121.524 72.942 121.528 72.9464C121.55 72.9735 121.564 73.0044 121.57 73.0367C121.559 73.167 121.565 73.2979 121.587 73.4273C121.586 73.4859 121.575 73.5441 121.556 73.6004C121.557 73.6116 121.556 73.623 121.552 73.6337C121.548 73.6445 121.541 73.6545 121.532 73.6631C121.523 73.6864 121.512 73.7094 121.5 73.7323C121.504 73.7361 121.509 73.7401 121.513 73.7436C121.533 73.7598 121.548 73.7799 121.556 73.802C121.565 73.8241 121.566 73.8476 121.56 73.8703C121.553 73.8885 121.548 73.9073 121.545 73.9264C121.548 73.9498 121.556 73.9725 121.57 73.9932C121.571 73.9954 121.571 73.9978 121.572 74C121.679 73.9863 121.786 73.973 121.894 73.963C121.947 73.9579 122 73.9551 122.054 73.9544C122.05 73.9454 122.047 73.936 122.047 73.9264C122.049 73.9073 122.055 73.8885 122.062 73.8703C122.068 73.8476 122.066 73.8241 122.058 73.802C122.05 73.7799 122.035 73.7598 122.015 73.7436C122.011 73.7401 122.006 73.7361 122.002 73.7323C122.014 73.7094 122.024 73.6864 122.034 73.6631C122.043 73.6545 122.05 73.6445 122.054 73.6337C122.058 73.623 122.059 73.6116 122.058 73.6004C122.077 73.5441 122.088 73.4859 122.088 73.4273C122.066 73.2979 122.061 73.167 122.071 73.0367C122.066 73.0044 122.052 72.9735 122.03 72.9464C122.026 72.942 122.019 72.9401 122.015 72.9362C122.047 72.9007 122.085 72.8685 122.127 72.8404C122.209 72.7881 122.298 72.7422 122.39 72.7032C122.413 72.6932 122.444 72.686 122.465 72.6745C122.497 72.679 122.53 72.6817 122.563 72.6827C122.686 72.6833 122.807 72.6592 122.915 72.6126C123.024 72.5659 123.117 72.4981 123.187 72.4151C123.256 72.332 123.3 72.2362 123.314 72.1361C123.328 72.036 123.312 71.9346 123.267 71.8408C123.301 71.834 123.333 71.8217 123.361 71.8046C123.389 71.7875 123.413 71.766 123.431 71.7413C123.468 71.6889 123.49 71.6304 123.495 71.5701C123.501 71.5469 123.502 71.523 123.496 71.4998C123.491 71.4766 123.48 71.4544 123.464 71.4347C123.436 71.4123 123.403 71.3937 123.368 71.3796C123.319 71.3546 123.279 71.3206 123.249 71.2803C123.228 71.2516 123.212 71.2202 123.193 71.1905C123.162 71.1355 123.113 71.0887 123.051 71.0551C122.989 71.0215 122.918 71.0025 122.844 71C122.773 71.0073 122.704 71.0187 122.636 71.0341C122.597 71.0391 122.558 71.0412 122.52 71.0404C122.593 71.0766 122.652 71.1285 122.692 71.1905Z" fill="#FF6584"/>
<path d="M125.446 79.3419C125.426 79.3237 125.404 79.3117 125.381 79.3065C125.266 79.276 125.153 79.2353 125.041 79.1845C124.928 79.1332 124.825 79.0367 124.74 78.9033C124.708 78.8406 124.672 78.7835 124.634 78.7328C124.614 78.7079 124.591 78.6931 124.566 78.6902C124.542 78.6872 124.517 78.6962 124.495 78.7161C124.491 78.722 124.487 78.7285 124.483 78.7357C124.468 78.7183 124.452 78.7009 124.436 78.6835C124.353 78.5912 124.269 78.4999 124.184 78.4097L124.181 78.406C124.183 78.3837 124.183 78.361 124.181 78.3387C124.166 78.2654 124.137 78.2034 124.097 78.1636C124.206 78.1619 124.315 78.1452 124.424 78.126C124.527 78.129 124.626 78.0636 124.701 77.9441C124.712 77.9233 124.719 77.8969 124.72 77.8689C124.72 77.8117 124.685 77.7743 124.654 77.7526C124.612 77.7237 124.568 77.7021 124.523 77.6881C124.492 77.6807 124.461 77.6699 124.431 77.6557C124.404 77.6392 124.378 77.6186 124.353 77.594C124.3 77.5445 124.246 77.4949 124.192 77.4454C124.17 77.4267 124.149 77.4023 124.13 77.3729C124.103 77.3243 124.091 77.2557 124.063 77.208C124.037 77.1641 123.934 77.1062 123.919 77.1963C123.913 77.2318 123.935 77.2712 123.938 77.311C123.902 77.2731 123.865 77.2388 123.827 77.2082C123.829 77.2003 123.831 77.1931 123.833 77.1848C123.655 76.9453 123.514 76.6379 123.421 76.2882C123.437 76.2888 123.453 76.2905 123.469 76.2903C123.496 76.2945 123.523 76.2833 123.546 76.2586C123.555 76.2441 123.563 76.2263 123.567 76.2063C123.572 76.1864 123.574 76.1649 123.573 76.1435C123.571 76.1008 123.565 76.0589 123.555 76.0195C123.532 75.9016 123.496 75.7923 123.448 75.6978C123.402 75.6228 123.349 75.5599 123.291 75.5112L123.282 75.5025C123.278 75.4826 123.275 75.4625 123.27 75.443C123.235 75.3221 123.196 75.205 123.153 75.0925C123.091 74.904 123.046 74.7021 123.019 74.4926C123.008 74.3649 122.979 74.2436 122.934 74.1397C122.85 73.9847 122.707 73.9886 122.583 74.0121C122.555 74.0173 122.528 74.0251 122.5 74.0315C122.54 74.0512 122.576 74.0886 122.605 74.1397C122.65 74.2436 122.679 74.3649 122.689 74.4926C122.717 74.7021 122.762 74.904 122.824 75.0925C122.867 75.205 122.906 75.3221 122.941 75.443C122.946 75.4625 122.949 75.4826 122.953 75.5025L122.962 75.5112C123.02 75.5599 123.073 75.6228 123.119 75.6978C123.167 75.7923 123.203 75.9016 123.226 76.0195C123.236 76.0589 123.242 76.1008 123.244 76.1435C123.245 76.1649 123.243 76.1864 123.238 76.2063C123.234 76.2263 123.226 76.2441 123.217 76.2586C123.194 76.2833 123.167 76.2945 123.139 76.2903C123.123 76.2905 123.108 76.2888 123.092 76.2882C123.185 76.6379 123.326 76.9453 123.504 77.1848C123.502 77.1931 123.5 77.2003 123.497 77.2082C123.536 77.2388 123.573 77.2731 123.609 77.311C123.606 77.2712 123.584 77.2318 123.59 77.1963C123.604 77.1062 123.708 77.1641 123.734 77.208C123.762 77.2557 123.774 77.3243 123.801 77.3729C123.819 77.4023 123.84 77.4267 123.863 77.4454C123.917 77.4949 123.97 77.5445 124.024 77.594C124.049 77.6186 124.075 77.6392 124.102 77.6557C124.132 77.6699 124.163 77.6807 124.194 77.6881C124.239 77.7021 124.282 77.7237 124.324 77.7526C124.356 77.7743 124.391 77.8117 124.391 77.8689C124.39 77.8969 124.383 77.9233 124.372 77.9441C124.297 78.0636 124.198 78.129 124.094 78.126C123.986 78.1452 123.877 78.1619 123.768 78.1636C123.808 78.2034 123.837 78.2654 123.852 78.3387C123.854 78.361 123.854 78.3837 123.852 78.406L123.855 78.4097C123.94 78.4999 124.024 78.5912 124.107 78.6835C124.123 78.7009 124.138 78.7182 124.154 78.7357C124.158 78.7285 124.162 78.722 124.166 78.7161C124.188 78.6962 124.212 78.6872 124.237 78.6902C124.261 78.6931 124.285 78.7079 124.305 78.7328C124.343 78.7835 124.379 78.8406 124.411 78.9033C124.496 79.0367 124.599 79.1332 124.712 79.1845C124.824 79.2353 124.937 79.276 125.052 79.3065C125.074 79.3117 125.097 79.3237 125.117 79.3419C125.139 79.3688 125.155 79.4062 125.164 79.4493C125.173 79.4923 125.173 79.5387 125.166 79.5823C125.149 79.6691 125.12 79.7476 125.081 79.8102C125.05 79.8718 125.012 79.9217 124.968 79.9566C124.941 79.9736 124.913 79.984 124.885 79.9874C124.984 80.0021 125.084 80.0039 125.183 79.9929C125.222 79.9913 125.261 79.979 125.297 79.9566C125.341 79.9217 125.379 79.8718 125.41 79.8102C125.449 79.7476 125.478 79.6691 125.495 79.5823C125.502 79.5387 125.502 79.4923 125.493 79.4493C125.484 79.4062 125.468 79.3688 125.446 79.3419Z" fill="#FF6584"/>
<path d="M130.5 77.5466C130.5 79.4612 129.605 78.9333 128.5 78.9333C127.395 78.9333 126.5 79.4612 126.5 77.5466C126.5 75.6321 128.5 72 128.5 72C128.5 72 130.5 75.6321 130.5 77.5466Z" fill="#FF6584"/>
<path opacity="0.1" d="M128.5 78.3771C128.5 79.1977 128.276 78.9714 128 78.9714C127.724 78.9714 127.5 79.1977 127.5 78.3771C127.5 77.5566 128 76 128 76C128 76 128.5 77.5566 128.5 78.3771Z" fill="black"/>
<path d="M127.5 72C127.5 72 127.183 71.2586 126.5 71L127.5 72Z" fill="#FF6584"/>
<path d="M126.388 74.5992L123.09 75.8726L123.134 76.0237L126.432 74.7503L126.388 74.5992Z" fill="#FF6584"/>
<path d="M126.405 74.3794C126.72 75.0173 126.19 74.8649 125.707 74.9166C125.223 74.9683 125.318 75.1984 124.653 74.5667C124.194 74.1298 124.868 74.0813 125.351 74.0295C125.835 73.9778 126.189 73.9439 126.405 74.3794Z" fill="#FF6584"/>
<path opacity="0.1" d="M81.5 49L50 11.5L43.1416 15.8418L42.5 16.0071L51.9012 32.5163L92.5 106L128.5 96L81.5 49Z" fill="#F2F2F2"/>
<path d="M48.5 23C51.8137 23 54.5 20.3137 54.5 17C54.5 13.6863 51.8137 11 48.5 11C45.1863 11 42.5 13.6863 42.5 17C42.5 20.3137 45.1863 23 48.5 23Z" fill="#F2F2F2"/>
<path d="M126.938 142.125C128.227 142.125 129.272 141.083 129.272 139.797C129.272 138.512 128.227 137.47 126.938 137.47C125.649 137.47 124.604 138.512 124.604 139.797C124.604 141.083 125.649 142.125 126.938 142.125Z" fill="#CCCCCC"/>
<path d="M141.5 108.812C141.5 111.125 139.625 113 137.312 113H13.6877C11.3749 113 9.5 111.125 9.5 108.812C9.5 106.753 10.9975 104.997 13.0341 104.691C54.6782 98.4364 96.3221 98.4364 137.966 104.691C140.003 104.997 141.5 106.753 141.5 108.812Z" fill="#CCCCCC"/>
<path d="M137.613 69.3796C139.672 70.0817 140.772 72.3199 140.07 74.3787L129.753 104.631C129.051 106.69 126.813 107.79 124.754 107.088C123.276 106.584 122.223 105.255 122.158 103.695C121.636 91.1573 125.412 80.0853 133.485 70.4792C134.49 69.2842 136.136 68.8757 137.613 69.3796Z" fill="#CCCCCC"/>
<path d="M137.613 69.3796C139.672 70.0817 140.772 72.3199 140.07 74.3787L129.753 104.631C129.051 106.69 126.813 107.79 124.754 107.088C123.276 106.584 122.223 105.255 122.158 103.695C121.636 91.1573 125.412 80.0853 133.485 70.4792C134.49 69.2842 136.136 68.8757 137.613 69.3796Z" fill="white" fill-opacity="0.2"/>
<path d="M104.22 72.1814C104.27 72.5261 104.429 72.8556 104.716 73.0528L116.687 81.2814C117.507 81.8452 118.565 81.9306 119.465 81.5057C120.733 80.9071 122.248 81.3398 123.009 82.5176L123.212 82.8325C124.202 84.3663 123.723 86.4157 122.155 87.351L118.829 89.3346C118.329 89.6332 117.745 89.7617 117.165 89.701C116.585 89.6403 116.04 89.3937 115.613 88.998L103.251 77.5557C102.276 76.6535 100.834 76.4746 99.5774 76.045C98.8981 75.8127 98.3058 75.3798 97.8793 74.8037C97.4528 74.2276 97.2123 73.5356 97.1897 72.8199C97.1672 72.1041 97.3637 71.3984 97.753 70.7968C98.1424 70.1951 98.7063 69.7259 99.3696 69.4516C100.033 69.1773 100.764 69.1109 101.466 69.2612C102.168 69.4115 102.808 69.7714 103.3 70.2931C103.792 70.8147 104.113 71.4734 104.22 72.1814Z" fill="#FFB8B8"/>
<path d="M118.277 81.378C118.337 81.1693 118.442 80.976 118.585 80.8115C118.727 80.6469 118.903 80.5149 119.101 80.4245L123.016 78.6353C125.014 77.7223 127.029 76.2234 129.179 76.6735C130.27 76.9019 131.225 77.5522 131.836 78.482C132.447 79.4117 132.663 80.545 132.437 81.6334C132.211 82.7218 131.562 83.6764 130.631 84.288L124.913 89.3304C124.75 89.4743 124.558 89.5814 124.349 89.6445C124.141 89.7076 123.921 89.7251 123.705 89.6959C123.489 89.6666 123.282 89.5914 123.098 89.4752C122.914 89.359 122.757 89.2046 122.639 89.0225L118.462 82.6233C118.343 82.4412 118.265 82.2357 118.233 82.0208C118.201 81.8059 118.216 81.5866 118.277 81.378Z" fill="#234AF4"/>
<path d="M104.05 72.832C104.049 72.8129 104.032 72.7986 104.013 72.7999C103.994 72.8013 103.977 72.787 103.976 72.7679L103.79 70.2005C103.729 69.3688 103.19 68.7299 102.585 68.7736L98.5738 69.063C97.9687 69.1067 96.8551 69.8648 96.9154 70.6965L96.964 71.3667L97.9511 84.971C98.0115 85.8027 99.2229 86.3931 99.828 86.3494L103.839 86.06C104.444 86.0163 104.886 85.3067 104.825 84.475L104.115 74.6891C104.114 74.67 104.128 74.6534 104.147 74.6521C104.166 74.6507 104.181 74.6341 104.179 74.615L104.05 72.832Z" fill="#3F3D56"/>
<path d="M103.557 70.2278L104.591 84.4814C104.636 85.1025 104.306 85.6325 103.854 85.6651L99.8244 85.9559C99.3725 85.9885 98.9696 85.5114 98.9245 84.8903L97.8903 70.6368C97.8453 70.0156 98.1751 69.4857 98.627 69.453L98.7264 69.4459C98.9171 69.4321 99.0678 69.623 99.1369 69.8013C99.1844 69.9237 99.2695 70.0279 99.3801 70.099C99.4265 70.1213 99.4779 70.1312 99.5293 70.1279L101.827 69.9621C102.042 69.9463 102.198 69.6943 102.177 69.399C102.17 69.2971 102.236 69.1926 102.337 69.1853L102.657 69.1622C103.109 69.1296 103.512 69.6067 103.557 70.2278Z" fill="white"/>
<path d="M49.0883 102.439C47.9461 102.827 46.706 102.216 46.3169 101.074C45.9601 100.028 46.4407 98.8797 47.4366 98.3994L57.2394 93.6715C58.7821 92.9275 60.6281 93.7002 61.1807 95.3214C61.6899 96.8151 60.8902 98.4386 59.3956 98.9452L49.0883 102.439Z" fill="#FFB8B8"/>
<path d="M46.0993 104.563C44.7018 105.037 43.1846 104.289 42.7085 102.892L39.3385 93.0061C39.3085 92.9182 39.3556 92.8225 39.4436 92.7927C40.0881 92.5742 40.7694 92.4844 41.4486 92.5285C42.1278 92.5726 42.7916 92.7496 43.4022 93.0495C44.0128 93.3495 44.5582 93.7664 45.0072 94.2766C45.4563 94.7867 45.8001 95.3801 46.0192 96.0228L47.7725 101.166C48.2497 102.566 47.5001 104.088 46.0993 104.563Z" fill="#2F2E41"/>
<path d="M104.369 105.924C101.27 106.097 98.1797 105.452 95.4107 104.053C84.7471 96.8185 71.2474 95.1746 59.1592 99.6387L58.5804 99.8524C58.0538 100.031 57.4788 100.004 56.9716 99.776C56.4643 99.5483 56.0626 99.1371 55.8475 98.6255L54.8752 96.293C54.6534 95.7684 54.647 95.1779 54.8574 94.6486C55.0678 94.1193 55.4781 93.6935 56 93.4628L74.9542 84.9741C77.2299 83.9587 79.7825 83.7385 82.1992 84.3492L105.48 90.2656C107.452 90.7668 109.218 91.8722 110.531 93.427L115.383 99.1733C115.432 99.2322 115.436 99.3175 115.39 99.3799C111.976 104.078 107.926 105.667 104.369 105.924Z" fill="#2F2E41"/>
<path d="M125.048 73.1663C125.183 74.2822 126.057 75.1648 127.171 75.3105C128.843 75.5291 130.234 74.0397 129.902 72.3869L129.52 70.4806C129.258 69.1792 127.985 68.3418 126.686 68.6176C125.479 68.8742 124.667 70.0103 124.815 71.2361L125.048 73.1663Z" fill="#F3A3A6"/>
<path d="M125.859 71.5023C130.428 71.5023 134.132 67.8081 134.132 63.2512C134.132 58.6942 130.428 55 125.859 55C121.289 55 117.585 58.6942 117.585 63.2512C117.585 67.8081 121.289 71.5023 125.859 71.5023Z" fill="#FFB8B8"/>
<path d="M133.596 69.2538C132.806 70.2669 132.132 70.8609 131.044 71.2852C131.027 71.1309 131.017 70.974 131.019 70.8172C130.869 71.028 130.721 71.2389 130.568 71.4497C129.891 71.6632 129.064 71.8303 127.994 72L127.468 70.3518C127.385 69.6061 127.866 68.9195 128.402 68.4078C128.939 67.8987 129.565 67.4616 129.934 66.8136C130.302 66.1656 130.297 65.1988 129.683 64.7925C129.079 64.3888 128.25 64.7205 127.568 64.4814C126.781 64.2062 126.412 63.2188 126.543 62.3754C126.673 61.532 127.172 60.8043 127.656 60.1126C126.528 60.6166 124.821 60.6809 123.159 60.38C123.219 59.8478 123.094 59.2898 122.781 58.8604C122.751 59.3515 122.528 59.8246 122.177 60.1563C120.58 59.7166 119.152 58.9349 118.5 57.8807C118.788 57.8035 119.076 57.7238 119.365 57.6467C119.282 57.0398 119.199 56.4356 119.117 55.8313C119.467 56.0087 119.821 56.1887 120.174 56.3662C120.242 56.1604 120.345 55.9804 120.475 55.821C120.773 55.7233 121.082 55.6642 121.395 55.641C121.495 55.6359 121.598 55.6307 121.701 55.6307C121.851 55.6307 122.006 55.6359 122.157 55.6539C121.969 55.479 121.778 55.3067 121.59 55.1293C121.568 55.1088 121.548 55.0882 121.525 55.0676C121.869 54.9159 122.239 54.8002 122.59 54.6999C124.124 54.2628 125.713 53.8231 127.287 54.0725C128.293 54.2321 129.293 54.7537 129.945 55.5318C130.528 56.2263 131.35 56.6379 132.226 56.8197C132.646 56.907 133.054 57.1001 133.393 57.369C133.18 57.5104 132.954 57.6338 132.718 57.7315C133.165 57.8421 133.608 57.9527 134.054 58.0658C134.47 58.6289 134.754 59.3001 134.969 59.9738C135.967 63.0774 135.586 66.703 133.596 69.2538Z" fill="#5B4A42"/>
<path d="M117.466 102.871C117.406 102.916 117.324 102.916 117.264 102.872L109.904 97.4088C107.016 95.2657 107.063 90.9276 109.997 88.8482C111.866 87.5239 113.735 85.2094 115.115 83.3814C116.405 81.6719 117.968 79.7787 118.652 78.9594C118.885 78.6796 119.13 78.4155 119.384 78.1547C120.667 76.8396 121.526 75.8015 122.292 75.1475C123.484 74.1224 125.01 73.5672 126.583 73.5864C127.575 73.6021 128.549 73.8478 129.429 74.304C130.31 74.7603 131.071 75.4145 131.654 76.215C132.237 77.0155 132.624 77.9402 132.787 78.9161C132.949 79.8919 132.882 80.8921 132.59 81.8374C131.276 86.0973 129.182 91.7419 126.673 94.4415C123.834 97.4914 120.755 100.31 117.466 102.871Z" fill="#234AF4"/>
<path d="M51.1998 105.895C50.0575 106.282 48.8173 105.671 48.4282 104.53C48.0715 103.483 48.5521 102.335 49.548 101.855L59.3509 97.1269C60.8935 96.383 62.7394 97.1557 63.292 98.7767C63.8012 100.27 63.0015 101.894 61.507 102.4L51.1998 105.895Z" fill="#FFB8B8"/>
<path d="M48.2102 108.018C46.8126 108.492 45.2954 107.744 44.8193 106.348L41.4493 96.4612C41.4194 96.3733 41.4665 96.2776 41.5545 96.2478C42.1989 96.0293 42.8802 95.9395 43.5594 95.9836C44.2386 96.0276 44.9025 96.2047 45.5131 96.5046C46.1237 96.8046 46.6691 97.2215 47.1181 97.7317C47.5671 98.2418 47.911 98.8352 48.1301 99.4779L49.8833 104.621C50.3605 106.021 49.611 107.543 48.2102 108.018Z" fill="#2F2E41"/>
<path d="M106.48 109.38C103.381 109.553 100.291 108.908 97.5221 107.509C86.8584 100.275 73.3588 98.6307 61.2705 103.095L60.6918 103.308C60.1651 103.487 59.5901 103.46 59.0829 103.232C58.5756 103.004 58.1739 102.593 57.9588 102.082L56.9865 99.7491C56.7647 99.2244 56.7584 98.6339 56.9687 98.1046C57.1791 97.5753 57.5894 97.1496 58.1113 96.9189L77.0655 88.4301C79.3412 87.4147 81.8938 87.1945 84.3105 87.8052L107.591 93.7216C109.563 94.2228 111.329 95.3282 112.642 96.883L117.494 102.629C117.544 102.688 117.547 102.774 117.502 102.836C114.087 107.534 110.037 109.123 106.48 109.38Z" fill="#2F2E41"/>
<path d="M102.661 82.0788C102.854 82.3689 103.139 82.599 103.483 82.6547L117.836 84.9797C118.818 85.1387 119.81 84.7637 120.442 83.9951C121.33 82.9132 122.882 82.6561 124.072 83.3939L124.396 83.5948C125.95 84.5582 126.395 86.6182 125.377 88.1367L123.227 91.3424C122.903 91.8259 122.431 92.1915 121.88 92.3843C121.33 92.5771 120.732 92.5867 120.176 92.4116L104.089 87.3486C102.823 86.95 101.443 87.4045 100.124 87.5527C99.4103 87.6329 98.6892 87.4945 98.0564 87.156C97.4237 86.8175 96.9092 86.2949 96.5815 85.6576C96.2539 85.0204 96.1285 84.2988 96.2221 83.5888C96.3156 82.8788 96.6238 82.214 97.1054 81.6829C97.5871 81.1518 98.2195 80.7795 98.9185 80.6156C99.6175 80.4517 100.35 80.5039 101.019 80.7652C101.687 81.0266 102.26 81.4847 102.661 82.0788Z" fill="#FFB8B8"/>
<path d="M119.313 84.3884C119.278 84.174 119.29 83.9545 119.347 83.7451C119.405 83.5357 119.508 83.3411 119.648 83.1748L122.417 79.8871C123.832 78.2082 125.011 75.9927 127.146 75.4817C128.229 75.2223 129.372 75.402 130.323 75.9815C131.274 76.561 131.956 77.4929 132.219 78.573C132.738 80.7027 131.293 82.7541 130.428 84.7686L128.724 88.7415C128.638 88.9412 128.51 89.1201 128.349 89.2661C128.188 89.4121 127.997 89.5218 127.789 89.5875C127.582 89.6533 127.362 89.6736 127.146 89.6472C126.93 89.6208 126.722 89.5482 126.536 89.4344L120.015 85.4346C119.829 85.3209 119.67 85.1685 119.549 84.9879C119.428 84.8074 119.347 84.6029 119.313 84.3884Z" fill="#234AF4"/>
<path d="M119.313 84.3884C119.278 84.174 119.29 83.9545 119.347 83.7451C119.405 83.5357 119.508 83.3411 119.648 83.1748L122.417 79.8871C123.832 78.2082 125.011 75.9927 127.146 75.4817C128.229 75.2223 129.372 75.402 130.323 75.9815C131.274 76.561 131.956 77.4929 132.219 78.573C132.738 80.7027 131.293 82.7541 130.428 84.7686L128.724 88.7415C128.638 88.9412 128.51 89.1201 128.349 89.2661C128.188 89.4121 127.997 89.5218 127.789 89.5875C127.582 89.6533 127.362 89.6736 127.146 89.6472C126.93 89.6208 126.722 89.5482 126.536 89.4344L120.015 85.4346C119.829 85.3209 119.67 85.1685 119.549 84.9879C119.428 84.8074 119.347 84.6029 119.313 84.3884Z" fill="black" fill-opacity="0.2"/>
<path d="M102.907 73.1286L99.3617 73.3844C99.2726 73.3908 99.1845 73.3617 99.117 73.3034C99.0494 73.2451 99.0078 73.1624 99.0014 73.0736C98.9949 72.9847 99.0241 72.8969 99.0826 72.8295C99.141 72.7622 99.2239 72.7207 99.313 72.7143L102.858 72.4584C102.902 72.4552 102.947 72.4606 102.989 72.4744C103.031 72.4883 103.07 72.5103 103.103 72.5391C103.137 72.568 103.164 72.6032 103.184 72.6427C103.204 72.6822 103.216 72.7252 103.219 72.7692C103.222 72.8133 103.217 72.8575 103.203 72.8995C103.189 72.9414 103.167 72.9801 103.138 73.0135C103.109 73.0469 103.073 73.0742 103.034 73.094C102.994 73.1137 102.951 73.1255 102.907 73.1286Z" fill="#3F3D56"/>
<path d="M103.029 74.8043L99.4835 75.0601C99.4393 75.0634 99.3949 75.058 99.3528 75.0441C99.3108 75.0303 99.2719 75.0083 99.2383 74.9794C99.2048 74.9506 99.1773 74.9154 99.1574 74.8759C99.1375 74.8364 99.1257 74.7934 99.1225 74.7494C99.1193 74.7053 99.1248 74.661 99.1388 74.6191C99.1528 74.5772 99.1749 74.5384 99.2039 74.5051C99.2329 74.4717 99.2683 74.4443 99.3079 74.4246C99.3475 74.4048 99.3907 74.3931 99.4349 74.39L102.98 74.1342C103.069 74.1277 103.157 74.1569 103.225 74.2152C103.292 74.2735 103.334 74.3561 103.34 74.445C103.347 74.5339 103.317 74.6217 103.259 74.689C103.201 74.7564 103.118 74.7979 103.029 74.8043Z" fill="#3F3D56"/>
<path d="M103.15 76.4796L99.6051 76.7354C99.5161 76.7417 99.4282 76.7124 99.3608 76.6541C99.2934 76.5959 99.2519 76.5133 99.2455 76.4245C99.2391 76.3358 99.2682 76.2481 99.3265 76.1808C99.3848 76.1134 99.4675 76.0719 99.5564 76.0653L103.101 75.8095C103.191 75.803 103.279 75.8322 103.346 75.8905C103.414 75.9488 103.455 76.0314 103.462 76.1203C103.468 76.2092 103.439 76.2969 103.381 76.3643C103.322 76.4317 103.239 76.4732 103.15 76.4796Z" fill="#3F3D56"/>
<rect x="5.5" y="112" width="130" height="32" fill="#D9D9D9"/>
<rect x="5.5" y="112" width="130" height="32" fill="black" fill-opacity="0.1"/>
</g>
<rect x="1.5" y="1" width="137" height="137" rx="68.5" stroke="url(#paint0_linear_461_1988)" stroke-width="2"/>
<defs>
<linearGradient id="paint0_linear_461_1988" x1="70" y1="0" x2="70" y2="139" gradientUnits="userSpaceOnUse">
<stop stop-color="#6C63FF" stop-opacity="0.9"/>
<stop offset="1" stop-color="#413B99"/>
</linearGradient>
<clipPath id="clip0_461_1988">
<rect x="0.5" width="139" height="139" rx="69.5" fill="white"/>
</clipPath>
</defs>
</svg>
